<?xml version="1.0" encoding="UTF-8"?>
<svg version="1.1" xmlns="http://www.w3.org/2000/svg" width="512" height="512">
<path d="M0 0 C16.07917601 -0.16043524 16.07917601 -0.16043524 23.03515625 -0.1953125 C27.74611874 -0.21904687 32.45676471 -0.24684543 37.16748047 -0.30175781 C40.97361164 -0.34583809 44.77940254 -0.36926504 48.58576965 -0.37950897 C50.02396489 -0.38679076 51.46214561 -0.40100267 52.90019226 -0.42292023 C72.14015111 -0.70397913 89.55936164 3.99476536 103.78515625 17.62109375 C115.27336557 29.96028154 119.61766003 43.41192039 121 60 C250.03 60 379.06 60 512 60 C510.87500468 73.4999439 510.87500468 73.4999439 509.75238037 79.39463806 C509.56884675 80.37217217 509.56884675 80.37217217 509.38160539 81.36945444 C508.97862472 83.50778306 508.56700948 85.64434739 508.15527344 87.78100586 C507.860422 89.33572523 507.56611646 90.89054821 507.27230835 92.44546509 C506.47535072 96.65485567 505.67084114 100.86277096 504.86498547 105.0704658 C504.00702963 109.55763458 503.15629647 114.04617277 502.30474854 118.53456116 C500.67831962 127.10147657 499.04571655 135.6672029 497.4107821 144.23249871 C495.42514218 154.63647777 493.44676331 165.04183437 491.46875 175.44726562 C490.76099749 179.17006398 490.05318845 182.89285158 489.34533691 186.6156311 C489.17083086 187.53342649 488.99632482 188.45122188 488.8165307 189.39682925 C487.58963949 195.84871864 486.36121494 202.30031499 485.13220215 208.75180054 C481.76761873 226.41624575 478.41275389 244.08242522 475.08789062 261.75439453 C474.85667063 262.98314928 474.85667063 262.98314928 474.62077951 264.23672736 C473.16511332 271.97327558 471.71093947 279.71010109 470.26065445 287.44765997 C469.86867676 289.53818523 469.4762101 291.62861803 469.0835495 293.71901512 C468.61061664 296.23733507 468.13863409 298.75583374 467.66779327 301.27454567 C467.35756855 302.92529374 467.35756855 302.92529374 467.04107666 304.60939026 C466.8628751 305.56067086 466.68467354 306.51195147 466.50107193 307.49205875 C466.06321517 309.68359844 465.55052558 311.83487284 465 314 C464.1354902 314.00059709 463.27098041 314.00119418 462.38027334 314.00180936 C411.15807507 314.03769254 359.93593559 314.09431494 308.71379182 314.17792095 C302.56537968 314.18793857 296.41696728 314.19778268 290.26855469 314.20751953 C288.43247433 314.21043159 288.43247433 314.21043159 286.55930144 314.21340248 C266.73187203 314.24443524 246.90445421 314.2614067 227.07700509 314.27319422 C206.73671017 314.28559916 186.39647609 314.31308573 166.05621958 314.35461307 C153.50218828 314.37976723 140.94825784 314.39311587 128.39420098 314.39142957 C119.78888522 314.39139985 111.18367231 314.40600125 102.57839662 314.43216428 C97.61138768 314.44683189 92.64458967 314.45499458 87.67756271 314.44580269 C83.1298758 314.43752912 78.5826131 314.44763389 74.03498918 314.47233662 C72.39018337 314.47803065 70.7453375 314.47698871 69.10054368 314.46851245 C57.43487963 314.31625425 57.43487963 314.31625425 47 319 C42.55056224 324.59031924 41.57700861 329.15622308 41.66015625 336.140625 C42.19596798 340.64883402 43.90460665 343.71888304 47 347 C52.41742012 351.15980473 57.4854645 352.12452231 64.15342522 352.12749195 C65.42419501 352.1304996 66.69496481 352.13350725 68.00424278 352.13660604 C69.41736923 352.13491845 70.83049558 352.13314738 72.24362183 352.13130188 C73.74264904 352.13300387 75.2416758 352.13515348 76.74070179 352.13771313 C80.00395042 352.1423131 83.26718007 352.14373042 86.53043175 352.14274788 C91.84011456 352.14115617 97.14977852 352.14635512 102.4594574 352.15237427 C110.17014434 352.16049128 117.88082797 352.16543259 125.5915184 352.16866493 C137.78589011 352.1741621 149.98023386 352.19106118 162.17459106 352.21000671 C166.3471889 352.21636376 170.51978681 352.22267219 174.69238472 352.22898388 C175.73524925 352.23056764 176.77811378 352.2321514 177.85258027 352.23378316 C189.72756452 352.25172482 201.60255076 352.26794762 213.47753906 352.28295898 C215.10599912 352.28502279 215.10599912 352.28502279 216.76735736 352.28712829 C234.3433625 352.30903788 251.91936044 352.31980933 269.49537681 352.32732973 C287.54642139 352.33540926 305.59740437 352.35872845 323.64841378 352.3952834 C334.77778435 352.41727719 345.90702815 352.42698258 357.03641935 352.42078307 C364.67132913 352.41760115 372.30613093 352.42898686 379.9410073 352.45167748 C384.34172572 352.4643074 388.74220346 352.47056121 393.14293098 352.45926094 C397.18006648 352.44902804 401.21673663 352.45747332 405.25381757 352.4801239 C406.70615109 352.48508267 408.15852706 352.48345899 409.61083947 352.47419123 C427.82710615 352.36718389 443.30248312 357.70248394 456.6171875 370.375 C469.1797103 384.21436938 474.11116767 399.85798681 473.34765625 418.36328125 C472.32506065 434.2535834 465.23409046 446.90760078 454 458 C453.18982422 458.84304688 453.18982422 458.84304688 452.36328125 459.703125 C442.07401641 469.5517916 427.08017282 473.93402828 413.1875 474.4375 C395.70040597 474.00860806 380.34735884 467.36748989 367.9921875 454.98828125 C357.33975848 443.25216356 351.97149071 429.20445819 351.75 413.3125 C351.72421875 412.21550781 351.6984375 411.11851562 351.671875 409.98828125 C352.11822979 404.56294501 353.67971692 399.28113231 355 394 C303.19 394 251.38 394 198 394 C198.99 398.29 199.98 402.58 201 407 C202.24654176 424.9858168 197.02995352 441.13172089 185.25 454.875 C173.34751741 467.2449517 157.39382025 473.77818617 140.375 474.375 C122.70995657 474.06744756 108.45599868 467.43466992 96 455 C95.3503125 454.36191406 94.700625 453.72382813 94.03125 453.06640625 C83.49868027 441.95639301 79.77775447 428.20577657 79.6875 413.3125 C79.68186035 412.42119385 79.6762207 411.5298877 79.67041016 410.61157227 C79.73104179 405.09049709 80.45100781 400.30113264 82 395 C80.89096313 394.97812622 80.89096313 394.97812622 79.75952148 394.95581055 C55.24273605 394.4160789 34.0569008 393.60800908 16 375 C15.35417969 374.36320312 14.70835938 373.72640625 14.04296875 373.0703125 C8.98312365 367.75692397 5.85396298 361.71978557 3 355 C2.65710938 354.19433594 2.31421875 353.38867188 1.9609375 352.55859375 C-2.59973929 339.28148328 -1.64353059 321.70236666 4 309 C4.60134766 307.61167969 4.60134766 307.61167969 5.21484375 306.1953125 C12.9237666 290.41995153 25.97279279 280.88240167 42.15234375 274.9453125 C47.02730174 273.32701369 50.98418528 272.88108273 56.171875 272.90234375 C57.1955014 272.90446617 57.1955014 272.90446617 58.23980713 272.90663147 C60.40991684 272.91220916 62.5799217 272.92475746 64.75 272.9375 C66.22525892 272.94251789 67.70051947 272.94708029 69.17578125 272.95117188 C72.78388798 272.96217125 76.39193375 272.97942047 80 273 C79.93945832 245.25323567 79.86195318 217.50656352 79.76428509 189.75990391 C79.71933049 176.87648397 79.67991497 163.99309166 79.65356445 151.10961914 C79.63058175 139.87964345 79.59718051 128.6497552 79.55129844 117.41984886 C79.52737008 111.4743854 79.50863869 105.52900851 79.50238609 99.583498 C79.4963336 93.98485683 79.47632737 88.38643717 79.44572449 82.78787804 C79.43694698 80.73566349 79.43322108 78.68341999 79.43499184 76.63118744 C79.43664965 73.82272319 79.41990187 71.01493017 79.39872742 68.20655823 C79.40357499 67.40011087 79.40842257 66.5936635 79.41341704 65.76277834 C79.33511747 59.44215491 78.29447159 53.01670236 74.38671875 47.87890625 C73.82597656 47.44449219 73.26523438 47.01007813 72.6875 46.5625 C71.85798828 45.88380859 71.85798828 45.88380859 71.01171875 45.19140625 C66.36918625 42.44194526 61.86227426 41.74532861 56.53564453 41.68115234 C54.64436325 41.65134781 54.64436325 41.65134781 52.71487427 41.62094116 C51.35418879 41.60906757 49.99350146 41.59740455 48.6328125 41.5859375 C47.22890098 41.56720966 45.82500053 41.54763505 44.42111206 41.5272522 C40.74200995 41.4760954 37.06287142 41.4363822 33.38360596 41.39910889 C29.62283474 41.35896554 25.86221053 41.30802517 22.1015625 41.2578125 C14.73443189 41.16023461 7.36741444 41.08058772 0 41 C0 27.47 0 13.94 0 0 Z M121 101 C121 122.45 121 143.9 121 166 C138.16 166 155.32 166 173 166 C173.99 144.55 174.98 123.1 176 101 C157.85 101 139.7 101 121 101 Z M217 101 C216.26204918 103.95180326 215.84347784 106.15802123 215.70288086 109.11572266 C215.66291489 109.91821442 215.62294891 110.72070618 215.58177185 111.54751587 C215.54318558 112.41097626 215.5045993 113.27443665 215.46484375 114.1640625 C215.42186661 115.07014252 215.37888947 115.97622253 215.33460999 116.90975952 C215.24442642 118.83460365 215.15629947 120.75954507 215.07006836 122.68457031 C214.94015656 125.56607615 214.80165111 128.4470715 214.66210938 131.328125 C214.57499326 133.21091316 214.48839033 135.09372515 214.40234375 136.9765625 C214.36173325 137.81168365 214.32112274 138.64680481 214.27928162 139.50723267 C213.89444832 148.35739838 214 157.10986259 214 166 C230.83 166 247.66 166 265 166 C266.19871396 163.60257208 266.31735071 161.73849226 266.57250977 159.06640625 C266.67253799 158.03773438 266.77256622 157.0090625 266.87562561 155.94921875 C267.03193703 154.27279297 267.03193703 154.27279297 267.19140625 152.5625 C267.30097153 151.41265625 267.4105368 150.2628125 267.52342224 149.078125 C267.75484345 146.63707079 267.98419896 144.19582001 268.21166992 141.75439453 C268.55851421 138.04265376 268.914536 134.33187476 269.27148438 130.62109375 C269.4953517 128.24744859 269.71867595 125.87375213 269.94140625 123.5 C270.04763809 122.39857666 270.15386993 121.29715332 270.26332092 120.16235352 C270.40863503 118.58151978 270.40863503 118.58151978 270.55688477 116.96875 C270.64269302 116.05544922 270.72850128 115.14214844 270.81690979 114.20117188 C271.06820253 109.80753849 271 105.40081382 271 101 C253.18 101 235.36 101 217 101 Z M313 101 C311.79615497 108.82499269 310.6472043 116.50067931 309.9296875 124.359375 C309.80075607 125.73141083 309.80075607 125.73141083 309.66921997 127.13116455 C309.49092965 129.03990053 309.31457644 130.94881842 309.14013672 132.85791016 C308.87419924 135.75873462 308.59958857 138.65865115 308.32421875 141.55859375 C308.15052311 143.42963943 307.97732853 145.30073171 307.8046875 147.171875 C307.72346649 148.02521423 307.64224548 148.87855347 307.55856323 149.75775146 C307.48493561 150.57600403 307.41130798 151.39425659 307.33544922 152.23730469 C307.27042206 152.9419989 307.2053949 153.64669312 307.13839722 154.3727417 C306.93450076 158.24340236 307 162.12397269 307 166 C323.83 166 340.66 166 358 166 C360.4775676 152.0756073 360.4775676 152.0756073 362.60546875 138.109375 C362.73440018 137.19085754 362.8633316 136.27234009 362.99617004 135.32598877 C363.26222817 133.4244059 363.52677932 131.52261155 363.78979492 129.62060547 C364.19287407 126.71121035 364.60302329 123.80286661 365.01367188 120.89453125 C365.27385601 119.02870415 365.53363697 117.16282076 365.79296875 115.296875 C365.97571602 114.00472076 365.97571602 114.00472076 366.16215515 112.6864624 C366.27259659 111.88081848 366.38303802 111.07517456 366.49682617 110.24511719 C366.59436691 109.54360535 366.69190765 108.84209351 366.79240417 108.11932373 C367.02385022 105.75651559 367 103.37411659 367 101 C349.18 101 331.36 101 313 101 Z M409 101 C407.36599015 108.25132221 407.36599015 108.25132221 406.13037109 115.51635742 C405.99037689 116.49734909 405.85038269 117.47834076 405.70614624 118.48905945 C405.49195541 120.03168205 405.49195541 120.03168205 405.2734375 121.60546875 C405.04462387 123.22972527 405.04462387 123.22972527 404.81118774 124.88679504 C404.49179218 127.16150144 404.17422418 129.43646513 403.85839844 131.71166992 C403.37490645 135.18817265 402.88312796 138.66343559 402.390625 142.13867188 C402.08023042 144.35670109 401.77031792 146.57479784 401.4609375 148.79296875 C401.24067398 150.34470039 401.24067398 150.34470039 401.01596069 151.92778015 C400.88227081 152.89931534 400.74858093 153.87085052 400.61083984 154.87182617 C400.49251801 155.71960129 400.37419617 156.5673764 400.25228882 157.44084167 C399.97226236 160.28136407 400 163.14570809 400 166 C416.83 166 433.66 166 451 166 C452.60875 157.87375 454.2175 149.7475 455.875 141.375 C456.63079346 137.57234619 456.63079346 137.57234619 457.40185547 133.69287109 C457.80725556 131.63645026 458.21238353 129.57997576 458.6171875 127.5234375 C458.82287354 126.49387939 459.02855957 125.46432129 459.24047852 124.40356445 C460.76974503 116.60776842 461.87233403 108.89366181 463 101 C445.18 101 427.36 101 409 101 Z M121 207 C121 228.78 121 250.56 121 273 C128.569375 273.020625 136.13875 273.04125 143.9375 273.0625 C146.32991943 273.071604 148.72233887 273.08070801 151.18725586 273.09008789 C153.07145125 273.09300692 154.95564727 273.09555551 156.83984375 273.09765625 C158.32200378 273.1053302 158.32200378 273.1053302 159.83410645 273.11315918 C161.23481384 273.11334045 161.23481384 273.11334045 162.66381836 273.11352539 C163.47878281 273.115746 164.29374725 273.11796661 165.13340759 273.12025452 C167.01477856 273.20528245 167.01477856 273.20528245 168 272 C168.18300378 269.97734605 168.29900221 267.9486023 168.38891602 265.91967773 C168.44890274 264.61840439 168.50888947 263.31713104 168.57069397 261.97642517 C168.63186565 260.54548567 168.69293395 259.11454176 168.75390625 257.68359375 C168.81932369 256.22768825 168.8851603 254.77180152 168.95140076 253.31593323 C169.1249156 249.47740158 169.29271303 245.63864022 169.45935059 241.79980469 C169.66031151 237.19744273 169.86831983 232.59539464 170.07515717 227.99329376 C170.38885954 220.99575561 170.69356583 213.99787726 171 207 C154.5 207 138 207 121 207 Z M212 207 C211.26336812 209.94652752 210.84380277 212.14807733 210.70288086 215.09985352 C210.66291489 215.89911758 210.62294891 216.69838165 210.58177185 217.52186584 C210.54318558 218.38218918 210.5045993 219.24251251 210.46484375 220.12890625 C210.42186661 221.03261459 210.37888947 221.93632294 210.33460999 222.86741638 C210.24441769 224.78806373 210.15629134 226.70880904 210.07006836 228.62963867 C209.94031743 231.500169 209.80173147 234.37016946 209.66210938 237.24023438 C209.57497715 239.11976654 209.48837399 240.99932332 209.40234375 242.87890625 C209.36173325 243.70886612 209.32112274 244.53882599 209.27928162 245.39393616 C208.87832759 254.61401401 209 263.73908091 209 273 C224.18 273 239.36 273 255 273 C255.94016254 270.17951238 256.29078376 267.89595859 256.57250977 264.95288086 C256.67253799 263.92428452 256.77256622 262.89568817 256.87562561 261.83592224 C257.03193703 260.16723839 257.03193703 260.16723839 257.19140625 258.46484375 C257.30097153 257.31641495 257.4105368 256.16798615 257.52342224 254.98475647 C257.75463003 252.54965881 257.98399511 250.1143856 258.21166992 247.67895508 C258.55887854 243.97612138 258.9147937 240.27419643 259.27148438 236.57226562 C259.49532384 234.20317522 259.71864738 231.834036 259.94140625 229.46484375 C260.04763809 228.36655746 260.15386993 227.26827118 260.26332092 226.13670349 C260.40863503 224.56071129 260.40863503 224.56071129 260.55688477 222.95288086 C260.64269302 222.04259628 260.72850128 221.13231171 260.81690979 220.19444275 C261.06860181 215.80307873 261 211.398571 261 207 C244.83 207 228.66 207 212 207 Z M303 207 C301.79804946 214.81267848 300.64874379 222.47789119 299.9296875 230.32421875 C299.84373322 231.23653763 299.75777893 232.14885651 299.66921997 233.08882141 C299.49091705 234.99335965 299.31456416 236.89808143 299.14013672 238.80297852 C298.87450813 241.69285125 298.59972926 244.58175765 298.32421875 247.47070312 C298.15049202 249.33849062 297.9772966 251.20632764 297.8046875 253.07421875 C297.72346649 253.9223967 297.64224548 254.77057465 297.55856323 255.64445496 C297.03153021 261.50103819 297 267.06640104 297 273 C312.18 273 327.36 273 343 273 C345.29230562 259.07636587 347.45450815 245.14711614 349.41079712 231.17297363 C349.63636234 229.56172969 349.8630616 227.95064408 350.09091187 226.33972168 C350.41333692 224.05511322 350.73089442 221.76988268 351.046875 219.484375 C351.19190208 218.46077881 351.19190208 218.46077881 351.33985901 217.41650391 C351.82346351 213.86956898 352 210.60511918 352 207 C335.83 207 319.66 207 303 207 Z M394 207 C392.36751817 214.24327073 392.36751817 214.24327073 391.13037109 221.50048828 C390.99037689 222.47825226 390.85038269 223.45601624 390.70614624 224.46340942 C390.56335236 225.48868744 390.42055847 226.51396545 390.2734375 227.5703125 C390.12089508 228.6507785 389.96835266 229.73124451 389.81118774 230.8444519 C389.49176988 233.11495853 389.17420248 235.38572619 388.85839844 237.65673828 C388.37537254 241.1223271 387.88334065 244.58655838 387.390625 248.05078125 C387.080184 250.26554865 386.77027012 252.48039002 386.4609375 254.6953125 C386.24067398 256.23930222 386.24067398 256.23930222 386.01596069 257.81448364 C385.88227081 258.7859433 385.74858093 259.75740295 385.61083984 260.75830078 C385.49251801 261.60385529 385.37419617 262.44940979 385.25228882 263.32058716 C384.94972506 266.53394088 385 269.77243328 385 273 C400.18 273 415.36 273 431 273 C433.13538548 261.87646745 433.13538548 261.87646745 435.265625 250.75195312 C436.13317268 246.21526901 437.00132495 241.67870641 437.87304688 237.14282227 C438.57571691 233.48637327 439.27570068 229.82941942 439.97381592 226.17209816 C440.24078537 224.77605643 440.50872628 223.38020011 440.77764893 221.98453331 C441.15380754 220.03144041 441.52620952 218.07762512 441.8984375 216.1237793 C442.11161621 215.0112529 442.32479492 213.8987265 442.54443359 212.75248718 C443.08164468 209.97169973 443.08164468 209.97169973 443 207 C426.83 207 410.66 207 394 207 Z M124.0625 402.125 C120.43424195 407.18257182 120.38160452 411.96840351 121 418 C122.64919606 423.97702265 126.05471058 427.32632575 131 430.87109375 C135.18550593 433.23361565 139.25066186 433.39577818 144 433 C150.20391903 431.008026 154.4071585 427.37159253 158 422 C160.52352665 416.95294671 160.27630543 412.37737508 159 407 C156.910124 401.30963111 153.22467682 397.93357724 148 395 C138.29102923 391.76367641 130.63633578 394.61204482 124.0625 402.125 Z M397.125 400.875 C393.54950207 406.13308519 392.34302567 410.64924817 393 417 C395.32948409 424.18373835 399.97236081 428.78479844 406.5 432.375 C412.55294643 433.88823661 417.31344646 433.04954861 422.84765625 430.41015625 C427.37580758 427.44343642 430.30592734 423.08221797 432 418 C432.79803449 411.58152263 432.21839529 406.99597193 428.4296875 401.6875 C425.05488685 397.70412875 420.95784588 394.43261011 415.703125 393.6640625 C408.10825793 393.54312513 402.33053051 395.10793996 397.125 400.875 Z " fill="#14C9CB" transform="translate(0,19)"/>
</svg>
