<?xml version="1.0" encoding="UTF-8"?>
<svg version="1.1" xmlns="http://www.w3.org/2000/svg" width="512" height="512">
<path d="M0 0 C1.19947266 -0.020625 2.39894531 -0.04125 3.63476562 -0.0625 C10.97706113 -0.09419906 17.44789279 0.67544377 24.52148438 2.67578125 C29.4088723 3.63820057 33.69353966 2.44878197 38.4375 1.25 C53.26864182 -1.5598646 71.01599867 -1.43299674 85.4375 3.25 C86.06092285 3.44335938 86.6843457 3.63671875 87.32666016 3.8359375 C108.52422549 10.52501582 125.86253378 24.05301421 138.4375 42.25 C138.99953125 43.03503906 139.5615625 43.82007813 140.140625 44.62890625 C153.30736393 64.55226121 154.63829452 87.97775195 154.5 111.0625 C154.49496824 112.54492034 154.49040834 114.02734236 154.48632812 115.50976562 C154.4754707 119.0898795 154.45830135 122.66992843 154.4375 126.25 C155.3409465 126.24333817 156.24439301 126.23667633 157.17521667 126.22981262 C165.6942782 126.16967193 174.21326829 126.12401051 182.7324934 126.09456348 C187.11220045 126.07891546 191.4917319 126.05769304 195.87133789 126.02368164 C200.09885189 125.99105726 204.32619711 125.97314049 208.55382729 125.96536827 C210.165761 125.95983028 211.77768559 125.94901585 213.38954735 125.93280983 C215.64946747 125.91099418 217.90869249 125.90803473 220.16870117 125.90942383 C221.45443527 125.90276199 222.74016937 125.89610016 224.06486511 125.88923645 C228.56936114 126.37107277 231.17536497 127.85263622 234.1875 131.1875 C236.45086934 134.92205941 236.56298655 138.39770865 236.56613445 142.70343685 C236.5693589 143.81807054 236.57258335 144.93270424 236.5759055 146.08111471 C236.5743569 147.30569924 236.5728083 148.53028377 236.57121277 149.79197693 C236.57347833 151.09295903 236.57574388 152.39394113 236.57807809 153.73434693 C236.5842039 157.34872151 236.58406156 160.96307299 236.58288372 164.57745159 C236.58267989 168.47473882 236.58819688 172.3720186 236.59294128 176.26930237 C236.60125393 183.90792135 236.60399645 191.54653262 236.60455366 199.18515574 C236.60502877 205.3972884 236.60708325 211.60941851 236.61025429 217.82155037 C236.61906446 235.44007454 236.62367339 253.05859262 236.62292381 270.67711901 C236.62286388 272.10236136 236.62286388 272.10236136 236.62280273 273.55639648 C236.62276185 274.50772117 236.62272097 275.45904585 236.62267885 276.43919856 C236.62227283 291.83990498 236.63183032 307.24058691 236.6459411 322.64128625 C236.66032068 338.46052099 236.66721034 354.27974381 236.66634732 370.09898525 C236.66601578 378.97769235 236.66874384 387.8563738 236.67952538 396.735075 C236.68865145 404.2990174 236.69078856 411.86292254 236.68401595 419.42686807 C236.68076065 423.28261481 236.68065793 427.13829014 236.6893692 430.99403 C236.69873869 435.18446358 236.69243191 439.3747333 236.68473816 443.56517029 C236.68988172 444.76967833 236.69502529 445.97418636 236.70032471 447.21519464 C236.63334402 463.79148183 233.51677613 477.85414973 223.4375 491.25 C222.98761719 491.86488281 222.53773438 492.47976563 222.07421875 493.11328125 C214.10541564 503.23702829 201.05253379 510.12868018 188.4375 512.25 C183.79250359 512.542438 179.1563749 512.52845755 174.50337219 512.51742554 C173.08679897 512.52116579 171.67022782 512.5257688 170.2536599 512.53115618 C166.37466744 512.54335547 162.49576143 512.54312935 158.61675417 512.54076743 C154.42777284 512.54035848 150.23881894 512.5514059 146.04985046 512.56088257 C137.84762187 512.57747702 129.64542202 512.58299142 121.44317804 512.58410732 C114.77347204 512.5850586 108.1037755 512.58917287 101.43407249 512.59550858 C82.51107673 512.61311726 63.58810362 512.62234811 44.6650996 512.62084763 C43.13571783 512.62072776 43.13571783 512.62072776 41.57543945 512.62060547 C40.55460202 512.62052371 39.53376459 512.62044195 38.48199268 512.62035771 C21.94340327 512.61954506 5.40490499 512.63867829 -11.13365807 512.6668822 C-28.1282371 512.69563433 -45.12277171 512.70942119 -62.11737567 512.70769465 C-71.65333424 512.70703152 -81.18919728 512.7124899 -90.7251339 512.73405075 C-98.84529693 512.75229327 -106.96532116 512.75658476 -115.08549585 512.7430319 C-119.22487882 512.73651753 -123.36399572 512.7363293 -127.50335312 512.7537384 C-131.30032737 512.76954261 -135.09682621 512.76653146 -138.89378939 512.74917014 C-140.90193673 512.74468091 -142.91009926 512.75969972 -144.91818827 512.77564943 C-160.37039402 512.65908231 -175.46969908 507.34280092 -186.5625 496.25 C-198.56083881 481.99390926 -202.87203935 469.06774583 -202.83665466 450.64204407 C-202.84111344 449.27324085 -202.84642958 447.9044402 -202.85252339 446.53564328 C-202.86663551 442.79362004 -202.86836798 439.05168012 -202.86792648 435.30963409 C-202.86958056 431.26667765 -202.88265751 427.22375497 -202.89411926 423.18081665 C-202.91691605 414.35271633 -202.92488308 405.52464013 -202.92994571 396.69651437 C-202.93320677 391.18350318 -202.93973143 385.67049894 -202.9469471 380.15749168 C-202.96650052 364.88851936 -202.98291394 349.61955347 -202.98582363 334.35056782 C-202.9860112 333.37461395 -202.98619877 332.39866009 -202.98639202 331.39313186 C-202.98675827 329.41476389 -202.98712197 327.43639591 -202.98748314 325.45802794 C-202.98766595 324.47599737 -202.98784876 323.4939668 -202.98803711 322.48217773 C-202.98821766 321.49894762 -202.98839821 320.51571751 -202.98858423 319.50269254 C-202.99213014 303.55110363 -203.01918417 287.59964933 -203.056535 271.64810715 C-203.09458966 255.26486623 -203.11398087 238.88169222 -203.11428314 222.49840611 C-203.1148681 213.30191779 -203.12338572 204.1055904 -203.15228081 194.90914345 C-203.17675586 187.08376122 -203.18410339 179.25859872 -203.16903328 171.43318859 C-203.16185027 167.44042151 -203.16278151 163.4480887 -203.18544388 159.45536995 C-203.20599006 155.80057049 -203.20347555 152.14654039 -203.18256903 148.49174967 C-203.17740591 146.54308236 -203.19688645 144.59439792 -203.21723074 142.64582998 C-203.12595775 133.18785354 -203.12595775 133.18785354 -200.21157932 129.48581219 C-196.5886183 126.4280478 -193.54643188 125.8206701 -188.82763672 125.88427734 C-184.39456821 126.60002822 -180.85196119 129.17712452 -177.125 131.5625 C-167.12486621 137.84806665 -158.60306958 141.60376774 -146.5625 140.25 C-141.45853638 139.07408681 -137.24273151 136.77550815 -133.00390625 133.7578125 C-120.73218201 125.29476271 -110.21022072 125.0476994 -95.5625 126.25 C-95.57821045 125.05624756 -95.5939209 123.86249512 -95.61010742 122.63256836 C-95.66510429 118.13166259 -95.69909931 113.6307854 -95.72729492 109.12963867 C-95.74222479 107.19501727 -95.76257609 105.26042876 -95.78881836 103.32592773 C-96.18915502 73.01808766 -88.07067599 48.24879997 -66.6875 26.0625 C-48.64057871 8.53511129 -24.83042955 0.10438436 0 0 Z M-52.515625 46.14453125 C-65.02813656 59.53066412 -71.76807362 76.49489634 -71.66015625 94.70703125 C-71.6587413 95.60999435 -71.65732635 96.51295746 -71.65586853 97.44328308 C-71.65028823 100.31638963 -71.63773934 103.18941716 -71.625 106.0625 C-71.61998245 108.01497283 -71.61541999 109.96744689 -71.61132812 111.91992188 C-71.60117779 116.69666924 -71.58159853 121.47324656 -71.5625 126.25 C-60.6725 126.25 -49.7825 126.25 -38.5625 126.25 C-38.51351562 123.82527344 -38.46453125 121.40054688 -38.4140625 118.90234375 C-38.35973071 116.4992158 -38.30255137 114.09617081 -38.24511719 111.69311523 C-38.20732478 110.04962598 -38.1723953 108.40606787 -38.140625 106.76245117 C-37.56016382 77.07730352 -31.84859362 50.29528835 -10 28.5625 C-9.33871094 27.93988281 -8.67742187 27.31726563 -7.99609375 26.67578125 C-7.28646484 25.97001953 -7.28646484 25.97001953 -6.5625 25.25 C-6.5625 24.92 -6.5625 24.59 -6.5625 24.25 C-23.72751159 23.450884 -40.77097497 34.75222072 -52.515625 46.14453125 Z M65.4375 24.25 C66.241875 25.1575 67.04625 26.065 67.875 27 C88.75734639 51.56746634 95.50098554 75.588346 96.0625 107.5625 C96.10077828 109.38217812 96.13983531 111.20184004 96.1796875 113.02148438 C96.27602418 117.43089453 96.35642926 121.84017856 96.4375 126.25 C107.3275 126.25 118.2175 126.25 129.4375 126.25 C129.50683108 120.48781668 129.56642422 114.72711374 129.60229492 108.96484375 C129.6172675 107.0097154 129.63765281 105.05461997 129.66381836 103.09960938 C129.84634064 89.09907703 129.36595271 76.78893521 122.75 64.125 C122.40114746 63.44687256 122.05229492 62.76874512 121.69287109 62.07006836 C112.77289567 45.24948605 98.00372524 33.14407404 80.125 26.8125 C75.22228091 25.31865136 70.54519861 24.59051324 65.4375 24.25 Z M7.2265625 44.40625 C-15.94088147 68.02795758 -14.5625 93.51171348 -14.5625 126.25 C14.1475 126.25 42.8575 126.25 72.4375 126.25 C72.87729818 80.32945998 72.87729818 80.32945998 50.625 44 C34.06056734 27.92200354 23.46132523 28.55095296 7.2265625 44.40625 Z M-102.5625 150.25 C-102.62864419 189.71637027 -102.68403369 229.18268825 -102.71569599 268.64909809 C-102.71944808 273.30911562 -102.72333105 277.96913304 -102.72729492 282.62915039 C-102.72808185 283.55687079 -102.72886878 284.48459119 -102.72967956 285.44042433 C-102.7427313 300.45933677 -102.76638387 315.47821473 -102.79395839 330.49710672 C-102.82201904 345.90938716 -102.83867766 361.32164955 -102.84476548 376.73395449 C-102.84888055 386.24315677 -102.86187488 395.75226162 -102.8862494 405.26143391 C-102.90211472 411.78339764 -102.90689855 418.30531105 -102.90300413 424.82729267 C-102.90108383 428.58939448 -102.90401495 432.3513261 -102.92011642 436.1133976 C-102.93746187 440.19602488 -102.93145419 444.27829083 -102.92326355 448.36094666 C-102.93200207 449.544816 -102.9407406 450.72868535 -102.94974393 451.94842952 C-102.88870693 463.20168334 -100.3304779 471.00040747 -92.5625 479.25 C-82.76409207 488.24493848 -72.15375822 489.40224228 -59.34846497 489.39044189 C-58.33414624 489.39341302 -57.31982752 489.39638414 -56.27477187 489.3994453 C-52.88344952 489.40810155 -49.49216259 489.40963794 -46.10083008 489.41113281 C-43.66609624 489.41576314 -41.23136313 489.42078809 -38.79663086 489.42617798 C-32.18694714 489.43928282 -25.57727075 489.44578028 -18.96757722 489.45018864 C-14.83581747 489.45295698 -10.70406004 489.45719538 -6.57230186 489.46169281 C4.88092368 489.4738804 16.33414738 489.48418095 27.78737926 489.4875679 C28.88563518 489.48789725 28.88563518 489.48789725 30.00607808 489.48823325 C30.73993792 489.48845153 31.47379776 489.48866981 32.22989577 489.4888947 C33.71682179 489.48933816 35.20374781 489.48978472 36.69067383 489.49023438 C37.42823067 489.4904558 38.16578751 489.49067723 38.92569456 489.49090537 C50.87054513 489.49485147 62.81533462 489.51230202 74.7601616 489.5355939 C87.04141835 489.55934734 99.3226445 489.57177155 111.60392457 489.57293582 C118.49228738 489.5738503 125.38057058 489.57954522 132.26891136 489.59775543 C138.75073926 489.6148314 145.23245663 489.61637929 151.71430206 489.60761642 C154.08779365 489.60684742 156.46129343 489.61117071 158.83476448 489.62107468 C182.92586221 489.82977355 182.92586221 489.82977355 203.1875 477.9375 C212.51179197 468.06097206 212.74329818 455.28906386 212.67800903 442.34822083 C212.67971788 441.09333868 212.68142673 439.83845654 212.68318737 438.54554766 C212.68762409 435.09287323 212.67970837 431.64032471 212.66963124 428.1876663 C212.66094553 424.45299203 212.66392051 420.71832412 212.66543579 416.98364258 C212.66648142 410.52314909 212.6602386 404.06269619 212.64896011 397.60221291 C212.63266425 388.26159419 212.62749294 378.92099498 212.62498413 369.58036359 C212.62061343 354.42360043 212.6073213 339.26685887 212.58837891 324.11010742 C212.57000392 309.39200956 212.55585534 294.67391757 212.54736328 279.95581055 C212.54683783 279.04766685 212.54631239 278.13952316 212.54577102 277.20385996 C212.54316083 272.64769525 212.54063344 268.09153049 212.53814721 263.5353657 C212.51743416 225.77355794 212.48057492 188.01179017 212.4375 150.25 C193.2975 150.25 174.1575 150.25 154.4375 150.25 C154.40011719 156.16035156 154.36273438 162.07070312 154.32421875 168.16015625 C154.29393257 171.91083612 154.26278047 175.6614689 154.22851562 179.41210938 C154.17424543 185.36154781 154.12313318 191.31089311 154.09106445 197.26049805 C154.06500062 202.0587524 154.02457629 206.85669299 153.97431374 211.65475273 C153.95766587 213.48267137 153.94613866 215.31064425 153.93988609 217.13862801 C153.93022232 219.70481154 153.90213636 222.27019613 153.86987305 224.83618164 C153.87130814 225.58712601 153.87274323 226.33807037 153.8742218 227.11177063 C153.78460904 232.17197641 152.85830882 235.77388935 150.4375 240.25 C146.62019573 242.59911032 144.2280979 243.26339996 139.75 243.1875 C136.1325974 242.16370681 134.73735382 241.16904523 132.4375 238.25 C130.84695839 235.06891677 131.25743863 231.62399937 131.23217773 228.12841797 C131.21712865 226.84938441 131.21712865 226.84938441 131.20177555 225.5445118 C131.17032689 222.77709824 131.1455932 220.0096704 131.12109375 217.2421875 C131.10269618 215.53653489 131.08385982 213.83088695 131.0645752 212.12524414 C130.99605814 205.7918848 130.93604984 199.45843572 130.875 193.125 C130.6584375 171.901875 130.6584375 171.901875 130.4375 150.25 C82.5875 150.25 34.7375 150.25 -14.5625 150.25 C-14.69340933 178.65653744 -14.69340933 178.65653744 -14.77026367 207.06323242 C-14.81115723 212.56311035 -14.81115723 212.56311035 -14.83662415 215.13960266 C-14.84968419 216.93517311 -14.85296289 218.73083117 -14.84846497 220.52644348 C-14.843555 223.25035249 -14.86988926 225.97236882 -14.90307617 228.69604492 C-14.89445399 229.49310191 -14.88583181 230.2901589 -14.87694836 231.11136913 C-14.96012895 235.12446232 -15.38734888 237.02660568 -17.89277649 240.22212219 C-21.28471322 242.79858121 -23.31142912 243.25 -27.5625 243.25 C-31.66199318 242.15680182 -34.1485912 240.87086321 -36.5625 237.25 C-37.77138411 232.94193225 -37.73367899 228.59706068 -37.76782227 224.1550293 C-37.77772186 223.35450638 -37.78762146 222.55398346 -37.79782104 221.72920227 C-37.82930277 219.09423742 -37.85414055 216.45925456 -37.87890625 213.82421875 C-37.8994873 211.99290001 -37.92048407 210.1615859 -37.94187927 208.33027649 C-37.99698111 203.51841996 -38.04644267 198.70652141 -38.09472656 193.89459229 C-38.15387802 188.11671112 -38.2200404 182.33890648 -38.28502655 176.56108856 C-38.38288643 167.79077259 -38.47184482 159.02040674 -38.5625 150.25 C-59.6825 150.25 -80.8025 150.25 -102.5625 150.25 Z M-135.703125 162.27734375 C-147.57528022 166.31582278 -161.4652336 165.44073805 -173.09375 161.125 C-175.59723661 160.082966 -175.59723661 160.082966 -178.5625 160.25 C-178.65408536 198.55277383 -178.72455387 236.85553114 -178.76676132 275.15839233 C-178.77176405 279.6819297 -178.77694135 284.20546686 -178.78222656 288.72900391 C-178.7832758 289.62954646 -178.78432505 290.53008902 -178.78540608 291.45792075 C-178.80280421 306.03321581 -178.83433865 320.60844767 -178.87111118 335.18370526 C-178.90853707 350.14285376 -178.93073934 365.10196919 -178.93885398 380.06116259 C-178.94433833 389.28940577 -178.96165085 398.51747029 -178.99416587 407.74565847 C-179.0153341 414.07654649 -179.02169482 420.40734235 -179.01650551 426.73826317 C-179.01394731 430.38915491 -179.01782736 434.03973476 -179.0393219 437.69057083 C-179.06248922 441.65461716 -179.05442834 445.61826042 -179.04351807 449.58236694 C-179.05516943 450.72830491 -179.0668208 451.87424289 -179.07882524 453.05490625 C-178.9960943 464.18961202 -175.7534957 472.01120613 -168.0546875 480.05078125 C-157.25574956 489.58025156 -144.08800617 489.53940231 -130.5 489.375 C-129.04753222 489.36494832 -127.5950577 489.35582635 -126.14257812 489.34765625 C-122.61574318 489.32582017 -119.0891658 489.29141149 -115.5625 489.25 C-116.11679688 488.19941406 -116.67109375 487.14882813 -117.2421875 486.06640625 C-117.97450293 484.64871868 -118.70624297 483.23073379 -119.4375 481.8125 C-119.80230469 481.12478516 -120.16710937 480.43707031 -120.54296875 479.72851562 C-120.89746094 479.03564453 -121.25195312 478.34277344 -121.6171875 477.62890625 C-122.10421143 476.69413452 -122.10421143 476.69413452 -122.60107422 475.74047852 C-125.65595934 467.82710037 -125.85497325 459.98664667 -125.8409729 451.58872986 C-125.8496615 449.70896992 -125.8496615 449.70896992 -125.85852563 447.79123503 C-125.87424317 444.33407252 -125.87775173 440.87699146 -125.87917423 437.41979754 C-125.88288277 433.68370121 -125.89804544 429.94764882 -125.91178894 426.21157837 C-125.93402006 419.74561465 -125.94905824 413.27966664 -125.95915604 406.81367302 C-125.97376608 397.46503559 -125.99930939 388.11645294 -126.02748732 378.76784772 C-126.07291311 363.59890845 -126.10954531 348.42996128 -126.140625 333.26098633 C-126.17082781 318.52920138 -126.20518603 303.79743576 -126.24511719 289.06567383 C-126.24757874 288.15700469 -126.25004028 287.24833555 -126.25257643 286.31213098 C-126.26495136 281.75342477 -126.27740783 277.19471879 -126.28990483 272.63601291 C-126.39340953 234.84070194 -126.48263357 197.04536794 -126.5625 159.25 C-129.54944467 159.25 -132.9373464 161.23457047 -135.703125 162.27734375 Z " fill="#00CEDD" transform="translate(239.5625,-0.25)"/>
<path d="M0 0 C3.10352458 1.60923497 5.21701424 3.00347267 7.375 5.75 C8.53427462 9.92338865 9.17409525 13.83167268 7.06192017 17.73245239 C1.94122186 24.4702624 -4.05612478 30.34609891 -10.0390625 36.3046875 C-11.20946944 37.47644406 -12.37957955 38.64849716 -13.54940796 39.8208313 C-15.98869022 42.2630462 -18.43151293 44.70164697 -20.87695312 47.13769531 C-24.0086851 50.25798307 -27.13128341 53.38723368 -30.25132179 56.51920891 C-32.66005754 58.93517042 -35.07353466 61.34635 -37.4884758 63.75610733 C-38.64217224 64.90847189 -39.79439114 66.0623177 -40.94508743 67.21767807 C-42.55055953 68.82823268 -44.16230872 70.43223214 -45.77587891 72.03466797 C-47.14771835 73.40412064 -47.14771835 73.40412064 -48.54727173 74.80123901 C-52.75192791 78.57052486 -56.07722476 79.60334773 -61.6484375 79.421875 C-68.80686386 78.13763904 -73.64600568 71.40586631 -78.21020508 66.23828125 C-81.22555832 62.84671458 -84.36255345 59.64383381 -87.63671875 56.5 C-88.44834473 55.7152832 -89.2599707 54.93056641 -90.09619141 54.12207031 C-91.71281219 52.56722102 -93.34108071 51.02437221 -94.98193359 49.49511719 C-99.77404226 44.8585229 -102.27494893 41.71738494 -103 35 C-101.75000456 30.98685675 -100.42981703 27.57236277 -97 25 C-93.38069302 23.79356434 -90.80768995 23.67731441 -87 24 C-82.71475159 26.51802434 -79.3031693 29.45851997 -75.8203125 32.984375 C-74.8921875 33.91894531 -73.9640625 34.85351562 -73.0078125 35.81640625 C-72.04676317 36.79416093 -71.08582704 37.77202688 -70.125 38.75 C-69.1410932 39.74395327 -68.15672217 40.73744722 -67.171875 41.73046875 C-64.77665206 44.14917427 -62.38623724 46.57243438 -60 49 C-54.15228466 44.15515727 -48.81961537 38.91884035 -43.48828125 33.515625 C-41.66094034 31.67564911 -39.83346235 29.83580934 -38.00585938 27.99609375 C-35.14618884 25.11265106 -32.28908049 22.22668865 -29.43432617 19.33837891 C-26.66591532 16.53804691 -23.88955345 13.74566365 -21.11328125 10.953125 C-20.25906082 10.08544495 -19.40484039 9.21776489 -18.5247345 8.3237915 C-17.72677963 7.52245789 -16.92882477 6.72112427 -16.10668945 5.89550781 C-15.40832474 5.18968567 -14.70996002 4.48386353 -13.99043274 3.75665283 C-9.74902183 0.01340327 -5.6011272 -0.88325467 0 0 Z " fill="#00C5E0" transform="translate(345,282)"/>
</svg>
